# xmcd
#
# Track frame offsets:
#	150
#	10260
#	23427
#	34985
#	48277
#	58682
#	68617
#	79510
#	91652
#	102822
#	125240
#	146397
#	160835
#	175690
#	188745
#	202252
#	215455
#	233847
#	251060
#	266850
#	283635
#
# Disc length: 4012 seconds
#
# Revision: 1
# Processed by: cddbd v1.5.1PL0 Copyright (c) Steve Scherf et al.
# Submitted via: audiograbber 1.83.01
#
DISCID=210faa15
DTITLE=Peebles, Ann - Lookin' For A Lovin'
DYEAR=1990
DGENRE=R&B
TTITLE0=Respect
TTITLE1=Make Me Yours
TTITLE2=It's Your Thing
TTITLE3=Won't You Try Me
TTITLE4=My Man
TTITLE5=I'll Get Along
TTITLE6=What You Laid On Me
TTITLE7=(You Keep Me) Hangin' On 
TTITLE8=Love Played A Game
TTITLE9=I Needed Somebody
TTITLE10=You're Gonna Make Me Cry
TTITLE11=Bip Bam, Thank You Mam
TTITLE12=The Handwriting Is On The Wall
TTITLE13=Livin' In, Lovin' Out
TTITLE14=Lookin' For A Lovin'
TTITLE15=You've Got The Papers
TTITLE16=I Didn't Take Your Man
TTITLE17=Heartaches
TTITLE18=Be For Me
TTITLE19=Mon Belle Amour
TTITLE20=I'd Rather Leave While I'm In Love
EXTD=
EXTT0=
EXTT1=
EXTT2=
EXTT3=
EXTT4=
EXTT5=
EXTT6=
EXTT7=
EXTT8=
EXTT9=
EXTT10=
EXTT11=
EXTT12=
EXTT13=
EXTT14=
EXTT15=
EXTT16=
EXTT17=
EXTT18=
EXTT19=
EXTT20=
PLAYORDER=
